HIERARCHY
ROOT Hips
{
	OFFSET 0.000000 83.214638 0.000000
	CHANNELS 6 Xposition Yposition Zposition Xrotation Yrotation Zrotation
	JOINT Pelvis
	{
		OFFSET 0.000000 0.000000 0.000000
		CHANNELS 3 Xrotation Yrotation Zrotation
		JOINT LeftUpLeg
		{
			OFFSET 8.479700 -4.795502 -0.379100
			CHANNELS 3 Xrotation Yrotation Zrotation
			JOINT LeftLeg
			{
				OFFSET 0.024144 -32.555107 0.112900
				CHANNELS 3 Xrotation Yrotation Zrotation
				JOINT LeftFoot
				{
					OFFSET -0.024144 -32.638630 -3.012600
					CHANNELS 3 Xrotation Yrotation Zrotation
					JOINT LeftToeBase
					{
						OFFSET 0.970200 -13.225400 11.864200
						CHANNELS 3 Xrotation Yrotation Zrotation
						End Site
						{
							OFFSET 0.000000 12.319262 0.000000
						}
					}
					JOINT LFootTongue
					{
						OFFSET 1.142400 -1.059800 6.665200
						CHANNELS 3 Xrotation Yrotation Zrotation
						End Site
						{
							OFFSET 0.000000 12.319262 0.000000
						}
					}
				}
				JOINT LeftPantLeg
				{
					OFFSET 0.918482 -16.533964 -2.284700
					CHANNELS 3 Xrotation Yrotation Zrotation
					End Site
					{
						OFFSET 0.350399 24.744368 0.000000
					}
				}
			}
		}
		JOINT RightUpLeg
		{
			OFFSET -8.479700 -4.795502 -0.379100
			CHANNELS 3 Xrotation Yrotation Zrotation
			JOINT RightLeg
			{
				OFFSET -0.023144 -32.555092 0.112900
				CHANNELS 3 Xrotation Yrotation Zrotation
				JOINT RightFoot
				{
					OFFSET 0.023144 -32.638641 -3.012700
					CHANNELS 3 Xrotation Yrotation Zrotation
					JOINT RightToeBase
					{
						OFFSET -0.970200 -13.225400 11.864200
						CHANNELS 3 Xrotation Yrotation Zrotation
						End Site
						{
							OFFSET 0.000000 12.319244 0.000000
						}
					}
					JOINT RFootTongue
					{
						OFFSET -1.142200 -1.059800 6.665200
						CHANNELS 3 Xrotation Yrotation Zrotation
						End Site
						{
							OFFSET 0.000000 12.319243 0.000000
						}
					}
				}
				JOINT RightPantLeg
				{
					OFFSET -0.919482 -16.533978 -2.284800
					CHANNELS 3 Xrotation Yrotation Zrotation
					End Site
					{
						OFFSET -0.350400 24.744419 0.000000
					}
				}
			}
		}
	}
	JOINT Spine
	{
		OFFSET 0.000000 7.722000 1.166200
		CHANNELS 3 Xrotation Yrotation Zrotation
		JOINT Spine1
		{
			OFFSET 0.000000 12.024101 0.248800
			CHANNELS 3 Xrotation Yrotation Zrotation
			JOINT Spine2
			{
				OFFSET 0.000000 11.502998 -0.491200
				CHANNELS 3 Xrotation Yrotation Zrotation
				JOINT Neck
				{
					OFFSET 0.000000 18.430702 -3.123100
					CHANNELS 3 Xrotation Yrotation Zrotation
					JOINT Head
					{
						OFFSET 0.000000 9.051102 1.034000
						CHANNELS 3 Xrotation Yrotation Zrotation
						JOINT HairB
						{
							OFFSET 0.208400 24.786102 24.822300
							CHANNELS 3 Xrotation Yrotation Zrotation
							End Site
							{
								OFFSET 0.000000 32.263779 0.000000
							}
						}
						JOINT HairA
						{
							OFFSET -7.081100 24.428299 23.196600
							CHANNELS 3 Xrotation Yrotation Zrotation
							End Site
							{
								OFFSET 0.000000 32.263779 0.000000
							}
						}
						JOINT Hat
						{
							OFFSET 16.728800 15.048294 -15.439601
							CHANNELS 3 Xrotation Yrotation Zrotation
							End Site
							{
								OFFSET 0.000000 32.263779 0.000000
							}
						}
					}
				}
				JOINT LeftShoulder
				{
					OFFSET 6.197800 13.665199 -4.064700
					CHANNELS 3 Xrotation Yrotation Zrotation
					JOINT LeftArm
					{
						OFFSET 7.778100 -0.187103 -1.709300
						CHANNELS 3 Xrotation Yrotation Zrotation
						JOINT LeftForeArm
						{
							OFFSET 22.049376 0.000000 0.000000
							CHANNELS 3 Xrotation Yrotation Zrotation
							JOINT LeftHand
							{
								OFFSET 23.009392 0.000000 0.000000
								CHANNELS 3 Xrotation Yrotation Zrotation
								JOINT LeftHandThumb1
								{
									OFFSET 3.507191 -2.063065 3.133727
									CHANNELS 3 Xrotation Yrotation Zrotation
									JOINT LeftHandThumb2
									{
										OFFSET 3.101337 -1.790558 1.790558
										CHANNELS 3 Xrotation Yrotation Zrotation
										JOINT LeftHandThumb3
										{
											OFFSET 3.058640 -1.765907 1.765906
											CHANNELS 3 Xrotation Yrotation Zrotation
											End Site
											{
												OFFSET -0.415260 3.926476 -0.049563
											}
										}
									}
								}
								JOINT LeftHandIndex1
								{
									OFFSET 11.334419 -0.901459 3.706815
									CHANNELS 3 Xrotation Yrotation Zrotation
									JOINT LeftHandIndex2
									{
										OFFSET 3.283112 0.000000 0.000000
										CHANNELS 3 Xrotation Yrotation Zrotation
										JOINT LeftHandIndex3
										{
											OFFSET 3.323853 0.000000 0.000000
											CHANNELS 3 Xrotation Yrotation Zrotation
											End Site
											{
												OFFSET -1.135597 3.097809 0.402452
											}
										}
									}
								}
								JOINT LeftHandMiddle1
								{
									OFFSET 11.335861 0.000000 0.000000
									CHANNELS 3 Xrotation Yrotation Zrotation
									JOINT LeftHandMiddle2
									{
										OFFSET 3.410492 0.000000 0.000000
										CHANNELS 3 Xrotation Yrotation Zrotation
										JOINT LeftHandMiddle3
										{
											OFFSET 3.312172 0.000000 0.000000
											CHANNELS 3 Xrotation Yrotation Zrotation
											End Site
											{
												OFFSET -1.150200 3.080154 0.400270
											}
										}
									}
								}
								JOINT LeftHandRing1
								{
									OFFSET 11.514786 -0.013176 -3.003090
									CHANNELS 3 Xrotation Yrotation Zrotation
									JOINT LeftHandRing2
									{
										OFFSET 3.053307 0.000000 0.000000
										CHANNELS 3 Xrotation Yrotation Zrotation
										JOINT LeftHandRing3
										{
											OFFSET 3.295807 0.000000 0.000000
											CHANNELS 3 Xrotation Yrotation Zrotation
											End Site
											{
												OFFSET -1.281006 3.013344 0.375733
											}
										}
									}
								}
								JOINT LeftHandPinky1
								{
									OFFSET 10.518692 -0.960396 -5.730441
									CHANNELS 3 Xrotation Yrotation Zrotation
									JOINT LeftHandPinky2
									{
										OFFSET 2.861649 0.000000 0.000000
										CHANNELS 3 Xrotation Yrotation Zrotation
										JOINT LeftHandPinky3
										{
											OFFSET 2.863380 0.000000 0.000000
											CHANNELS 3 Xrotation Yrotation Zrotation
											End Site
											{
												OFFSET -0.843597 2.711159 0.369971
											}
										}
									}
								}
							}
							JOINT LSleeve
							{
								OFFSET 6.676277 -0.344902 -1.011730
								CHANNELS 3 Xrotation Yrotation Zrotation
								End Site
								{
									OFFSET 0.000000 14.885353 0.000000
								}
							}
						}
					}
				}
				JOINT RightShoulder
				{
					OFFSET -6.197800 13.665199 -4.064700
					CHANNELS 3 Xrotation Yrotation Zrotation
					JOINT RightArm
					{
						OFFSET -7.778100 -0.187103 -1.709300
						CHANNELS 3 Xrotation Yrotation Zrotation
						JOINT RightForeArm
						{
							OFFSET -22.049376 0.000000 0.000000
							CHANNELS 3 Xrotation Yrotation Zrotation
							JOINT RightHand
							{
								OFFSET -23.009392 0.000000 0.000000
								CHANNELS 3 Xrotation Yrotation Zrotation
								JOINT RightHandThumb1
								{
									OFFSET -3.507191 -2.063065 3.133727
									CHANNELS 3 Xrotation Yrotation Zrotation
									JOINT RightHandThumb2
									{
										OFFSET -3.101337 -1.790558 1.790558
										CHANNELS 3 Xrotation Yrotation Zrotation
										JOINT RightHandThumb3
										{
											OFFSET -3.058640 -1.765907 1.765906
											CHANNELS 3 Xrotation Yrotation Zrotation
											End Site
											{
												OFFSET 0.415260 3.926476 -0.049563
											}
										}
									}
								}
								JOINT RightHandIndex1
								{
									OFFSET -11.334419 -0.901459 3.706815
									CHANNELS 3 Xrotation Yrotation Zrotation
									JOINT RightHandIndex2
									{
										OFFSET -3.283112 0.000000 0.000000
										CHANNELS 3 Xrotation Yrotation Zrotation
										JOINT RightHandIndex3
										{
											OFFSET -3.323853 0.000000 0.000000
											CHANNELS 3 Xrotation Yrotation Zrotation
											End Site
											{
												OFFSET 1.135597 3.097809 0.402452
											}
										}
									}
								}
								JOINT RightHandMiddle1
								{
									OFFSET -11.335861 0.000000 0.000000
									CHANNELS 3 Xrotation Yrotation Zrotation
									JOINT RightHandMiddle2
									{
										OFFSET -3.410492 0.000000 0.000000
										CHANNELS 3 Xrotation Yrotation Zrotation
										JOINT RightHandMiddle3
										{
											OFFSET -3.312172 0.000000 0.000000
											CHANNELS 3 Xrotation Yrotation Zrotation
											End Site
											{
												OFFSET 1.150200 3.080154 0.400270
											}
										}
									}
								}
								JOINT RightHandRing1
								{
									OFFSET -11.514786 -0.013176 -3.003090
									CHANNELS 3 Xrotation Yrotation Zrotation
									JOINT RightHandRing2
									{
										OFFSET -3.053307 0.000000 0.000000
										CHANNELS 3 Xrotation Yrotation Zrotation
										JOINT RightHandRing3
										{
											OFFSET -3.295807 0.000000 0.000000
											CHANNELS 3 Xrotation Yrotation Zrotation
											End Site
											{
												OFFSET 1.281006 3.013344 0.375733
											}
										}
									}
								}
								JOINT RightHandPinky1
								{
									OFFSET -10.518692 -0.960396 -5.730441
									CHANNELS 3 Xrotation Yrotation Zrotation
									JOINT RightHandPinky2
									{
										OFFSET -2.861649 0.000000 0.000000
										CHANNELS 3 Xrotation Yrotation Zrotation
										JOINT RightHandPinky3
										{
											OFFSET -2.863380 0.000000 0.000000
											CHANNELS 3 Xrotation Yrotation Zrotation
											End Site
											{
												OFFSET 0.843597 2.711159 0.369971
											}
										}
									}
								}
							}
							JOINT RSleeve
							{
								OFFSET -6.676277 -0.344902 -1.011730
								CHANNELS 3 Xrotation Yrotation Zrotation
								End Site
								{
									OFFSET 0.000000 14.885353 0.000000
								}
							}
						}
					}
				}
				JOINT Backpack
				{
					OFFSET 0.000000 -2.471497 36.677502
					CHANNELS 3 Xrotation Yrotation Zrotation
					End Site
					{
						OFFSET 0.000000 20.427315 0.000000
					}
				}
				JOINT Hood
				{
					OFFSET 0.000000 18.754097 -10.431000
					CHANNELS 3 Xrotation Yrotation Zrotation
					JOINT Hood1
					{
						OFFSET 0.000000 -5.011002 -7.685901
						CHANNELS 3 Xrotation Yrotation Zrotation
						End Site
						{
							OFFSET 0.000000 9.175140 0.000000
						}
					}
				}
				JOINT LHoodieString
				{
					OFFSET 5.250500 16.397697 3.089900
					CHANNELS 3 Xrotation Yrotation Zrotation
					JOINT LHoodieString1
					{
						OFFSET 0.257700 -6.364304 3.694600
						CHANNELS 3 Xrotation Yrotation Zrotation
						JOINT LHoodieString2
						{
							OFFSET 0.000000 -9.643799 2.679100
							CHANNELS 3 Xrotation Yrotation Zrotation
							End Site
							{
								OFFSET 0.000000 10.009018 0.000000
							}
						}
					}
				}
				JOINT RHoodieString
				{
					OFFSET -5.250500 16.397697 3.089900
					CHANNELS 3 Xrotation Yrotation Zrotation
					JOINT RHoodieString1
					{
						OFFSET -0.257700 -6.364304 3.694600
						CHANNELS 3 Xrotation Yrotation Zrotation
						JOINT RHoodieString2
						{
							OFFSET 0.000000 -9.643799 2.679100
							CHANNELS 3 Xrotation Yrotation Zrotation
							End Site
							{
								OFFSET 0.000000 10.009018 0.000000
							}
						}
					}
				}
			}
			JOINT LBackpack_Strap
			{
				OFFSET 15.223200 -7.719803 -6.610900
				CHANNELS 3 Xrotation Yrotation Zrotation
				End Site
				{
					OFFSET 0.000000 16.040596 0.000000
				}
			}
			JOINT RBackpack_Strap
			{
				OFFSET -15.223000 -7.719803 -6.610900
				CHANNELS 3 Xrotation Yrotation Zrotation
				End Site
				{
					OFFSET 0.000000 16.040596 0.000000
				}
			}
		}
	}
	JOINT BoyFacialAnim_Joint
	{
		OFFSET 1.000000 -82.208099 -1.550900
		CHANNELS 3 Xrotation Yrotation Zrotation
		End Site
		{
			OFFSET 0.000000 30.012791 0.000000
		}
	}
}
MOTION
Frames: 4
Frame Time: 0.033333
-3.826415 64.044380 84.616791 84.735101 81.692348 265.641356 -0.000000 0.000000 -0.000000 -77.485668 2.546321 48.320686 68.692374 -8.112147 -0.167108 -2.527071 1.936833 -6.700203 -0.000000 -0.000000 -0.000000 -0.000000 -0.000000 -0.000000 0.000000 -0.000001 0.000000 -34.717606 1.318188 -30.806305 38.281165 3.979844 0.519007 -8.429222 0.244425 34.574851 0.000000 0.000002 0.000000 0.000000 0.000002 0.000000 0.000001 -0.000001 -0.000005 5.949898 -1.487140 -4.972920 3.445023 -0.094367 -3.100248 3.439146 -0.212719 -3.098581 5.776928 -6.646435 17.843724 10.570275 -41.438239 22.128213 0.000002 0.000003 0.000000 0.000002 0.000003 0.000000 0.000002 0.000003 0.000000 0.872830 1.729278 -10.893145 -28.358775 12.392062 -52.315066 -0.000001 -144.349641 -0.000001 -21.583058 3.002910 18.149001 -1.540039 3.690181 6.142342 3.946771 7.971385 0.752848 -0.000000 -0.000001 0.000001 0.291041 1.984508 -16.685780 0.155188 1.456463 -12.162555 -0.000000 0.000004 0.000000 0.290499 1.982661 -16.669784 0.155580 1.458362 -12.178530 0.000001 0.000004 0.000003 0.291057 1.984503 -16.685771 0.155179 1.456468 -12.162565 -0.000001 -0.000003 -0.000002 1.443002 5.872566 -16.254334 0.150194 -2.599205 -12.661871 -0.000001 -0.000001 -0.000000 0.000000 0.000003 -0.000001 0.613602 -3.680963 10.739490 23.865070 24.875382 39.049783 -0.000078 121.016540 0.000078 -16.547349 30.051548 -18.488294 -1.858000 -3.598123 -6.569072 4.645026 -8.656780 -0.231322 0.000000 0.000001 0.000000 0.237534 -1.805386 14.989584 0.237540 -1.805396 14.989620 -0.000002 0.000000 0.000005 0.237533 -1.805384 14.989600 0.237540 -1.805393 14.989608 0.000001 0.000000 0.000002 0.237536 -1.805379 14.989586 0.237536 -1.805389 14.989622 -0.000001 0.000000 0.000004 0.237531 -1.805379 14.989584 0.237539 -1.805396 14.989608 -0.000001 -0.000002 -0.000000 -0.000003 -0.000002 0.000002 0.000001 0.000000 0.000000 0.000001 0.000000 0.000000 0.000001 0.000000 0.000000 0.000001 0.000000 0.000000 0.000001 0.000000 0.000000 -0.000000 0.000000 0.000000 0.000001 0.000000 0.000000 0.000001 0.000000 0.000000 -0.000000 0.000000 0.000000 0.000000 -0.000001 -0.000002 0.000000 -0.000001 -0.000002 -0.000000 0.000000 -0.000000 
-3.812663 62.396294 86.502075 31.363587 76.987529 322.450553 0.000001 -0.000002 0.000000 -71.939282 2.791321 53.697936 71.506787 -9.457309 -0.337323 -6.571956 0.316649 -12.649985 0.000000 -0.000000 -0.000000 0.000000 -0.000000 -0.000000 -0.000000 0.000002 0.000001 -43.829877 7.656383 -30.639085 46.365209 8.897646 0.726186 -10.233766 3.892278 33.631223 -0.000000 0.000000 0.000000 -0.000000 0.000000 0.000000 0.000003 -0.000001 -0.000005 5.805266 -2.043619 -5.895032 3.813324 -0.181585 -2.663775 3.805215 -0.300216 -2.668045 3.364396 -6.744797 15.642892 10.514473 -39.505117 20.195780 0.000000 -0.000001 0.000000 0.000000 -0.000001 0.000000 0.000000 -0.000001 0.000000 0.921306 1.681774 -11.114696 -23.957833 4.373874 -62.172091 -0.000006 -138.842747 0.000007 2.676787 -1.680218 23.648475 -1.540037 3.690187 6.142340 3.946765 7.971376 0.752847 -0.000001 -0.000001 -0.000003 0.291044 1.984512 -16.685783 0.155186 1.456466 -12.162555 -0.000000 -0.000003 -0.000004 0.290503 1.982664 -16.669784 0.155583 1.458360 -12.178528 -0.000000 -0.000001 -0.000002 0.291059 1.984505 -16.685768 0.155179 1.456465 -12.162561 -0.000000 -0.000003 0.000001 1.443002 5.872568 -16.254332 0.150193 -2.599205 -12.661872 -0.000000 -0.000001 0.000001 0.000000 -0.000000 -0.000000 0.653934 -2.941769 9.971263 23.990582 22.321994 37.102264 -0.000019 119.943846 0.000039 -17.440680 29.284395 -18.434402 -1.883296 -3.645959 -6.519000 4.645024 -8.656778 -0.231318 0.000000 0.000000 0.000000 0.237534 -1.805385 14.989579 0.237541 -1.805397 14.989622 0.000001 -0.000002 0.000001 0.237532 -1.805381 14.989598 0.237540 -1.805393 14.989603 0.000002 -0.000001 -0.000004 0.237535 -1.805378 14.989584 0.237535 -1.805388 14.989624 -0.000000 0.000001 0.000000 0.237529 -1.805379 14.989584 0.237541 -1.805394 14.989607 -0.000001 -0.000001 0.000000 -0.000001 -0.000000 0.000001 -0.000001 0.000001 -0.000001 -0.000001 0.000001 -0.000001 -0.000001 0.000001 -0.000001 -0.000001 0.000001 -0.000001 -0.000001 0.000001 -0.000002 0.000001 0.000000 -0.000000 -0.000001 0.000001 -0.000001 -0.000001 0.000001 -0.000002 0.000001 0.000000 -0.000000 -0.000000 0.000000 -0.000000 -0.000000 0.000000 -0.000000 0.000001 -0.000002 0.000000 
-3.693389 61.023773 87.984352 18.709727 69.600106 338.023822 -0.000000 0.000000 -0.000000 -65.590375 3.118653 55.496301 72.907557 -9.563742 -0.539535 -11.982356 -3.128562 -18.577293 0.000000 0.000002 0.000000 0.000000 0.000002 0.000000 0.000001 -0.000001 0.000000 -51.859082 14.149503 -27.662404 53.293282 8.728578 0.750644 -10.454591 7.381281 32.008189 -0.000000 -0.000001 -0.000000 -0.000000 -0.000001 -0.000000 -0.000000 -0.000000 0.000003 5.604650 -3.074551 -5.634045 3.844363 -0.353024 -2.212559 3.831098 -0.467432 -2.226611 2.382206 -6.733977 13.809376 9.474113 -38.137577 17.497864 0.000002 -0.000000 -0.000000 0.000002 -0.000000 -0.000000 0.000002 -0.000000 -0.000000 0.971872 1.519631 -11.319169 -22.885415 -0.946859 -67.081071 0.000016 -134.421497 0.000028 4.651353 -6.563473 21.479053 -1.540040 3.690184 6.142342 3.946767 7.971387 0.752844 0.000000 -0.000005 0.000001 0.291044 1.984516 -16.685782 0.155186 1.456460 -12.162549 -0.000001 -0.000002 -0.000004 0.290501 1.982667 -16.669784 0.155580 1.458364 -12.178532 0.000001 -0.000007 0.000001 0.291058 1.984511 -16.685771 0.155177 1.456465 -12.162558 -0.000001 0.000000 -0.000000 1.443002 5.872569 -16.254336 0.150194 -2.599205 -12.661873 -0.000000 0.000005 0.000001 -0.000000 -0.000002 -0.000001 0.656790 -2.538291 9.360053 24.696330 22.601132 32.534428 -0.000032 118.739956 0.000032 -20.691372 25.984767 -19.282724 -1.838371 -3.561851 -6.607012 4.645023 -8.656779 -0.231320 -0.000001 0.000000 -0.000000 0.237534 -1.805383 14.989583 0.237537 -1.805394 14.989620 -0.000001 0.000000 -0.000002 0.237534 -1.805381 14.989598 0.237539 -1.805394 14.989603 0.000001 0.000001 0.000002 0.237535 -1.805378 14.989590 0.237532 -1.805389 14.989625 0.000001 0.000000 0.000002 0.237532 -1.805381 14.989584 0.237537 -1.805397 14.989605 -0.000000 -0.000001 -0.000005 0.000004 0.000001 -0.000004 -0.000000 0.000000 0.000000 -0.000000 0.000000 0.000000 -0.000000 0.000000 0.000000 -0.000000 0.000000 0.000000 -0.000000 0.000000 0.000001 0.000002 0.000000 -0.000000 -0.000000 0.000000 0.000000 -0.000000 0.000000 0.000001 0.000002 0.000000 -0.000000 0.000001 -0.000000 0.000000 0.000001 -0.000000 0.000000 -0.000000 0.000000 -0.000000 
-3.107724 60.031387 89.268768 14.480225 64.195862 344.435785 -0.000000 0.000000 -0.000000 -58.671236 3.154031 54.713476 72.968673 -9.603811 -0.678627 -17.807029 -5.139443 -23.797581 0.000000 -0.000000 0.000000 0.000000 -0.000000 0.000000 0.000002 -0.000001 0.000001 -56.573487 18.955247 -24.642038 58.374232 8.373170 0.688482 -11.176017 8.198876 31.124267 -0.000000 0.000001 0.000000 -0.000000 0.000001 0.000000 -0.000001 -0.000001 0.000001 5.648779 -4.372108 -3.968481 3.318900 -0.585579 -1.946395 3.296222 -0.699418 -1.967651 4.102864 -6.443524 11.815125 8.794726 -37.350128 15.685178 0.000002 -0.000001 0.000000 0.000002 -0.000001 0.000000 0.000002 -0.000001 0.000000 0.962869 1.771608 -11.587299 -23.932877 -6.136364 -70.445328 0.000003 -131.419465 0.000000 -5.632525 -7.842237 10.988255 -1.540042 3.690189 6.142340 3.946770 7.971383 0.752846 -0.000002 0.000002 0.000002 0.291044 1.984513 -16.685782 0.155185 1.456462 -12.162552 -0.000002 -0.000001 -0.000002 0.290498 1.982665 -16.669790 0.155574 1.458362 -12.178530 0.000005 -0.000002 0.000002 0.291055 1.984504 -16.685771 0.155178 1.456464 -12.162560 0.000001 -0.000004 -0.000004 1.443000 5.872566 -16.254332 0.150193 -2.599198 -12.661869 -0.000000 0.000004 0.000000 0.000000 0.000000 -0.000003 0.625154 -2.591748 9.040198 28.665839 25.458690 24.854717 -0.000010 117.446059 -0.000004 -23.877651 21.647412 -21.089409 -1.685402 -3.276414 -6.908341 4.645027 -8.656778 -0.231318 0.000001 0.000001 0.000001 0.237532 -1.805384 14.989583 0.237535 -1.805394 14.989619 -0.000002 0.000000 0.000000 0.237528 -1.805382 14.989600 0.237539 -1.805393 14.989603 0.000003 0.000001 -0.000000 0.237531 -1.805378 14.989588 0.237531 -1.805389 14.989620 0.000001 -0.000000 0.000000 0.237527 -1.805378 14.989581 0.237541 -1.805395 14.989608 0.000000 -0.000001 -0.000000 0.000001 -0.000001 -0.000000 0.000002 -0.000001 -0.000000 0.000002 -0.000001 -0.000000 0.000002 -0.000001 -0.000000 0.000002 -0.000001 -0.000000 0.000002 -0.000001 0.000001 0.000002 -0.000001 0.000001 0.000002 -0.000001 -0.000000 0.000002 -0.000001 0.000001 0.000002 -0.000001 0.000001 0.000001 -0.000003 -0.000001 0.000001 -0.000003 -0.000001 -0.000000 0.000000 -0.000000 
